REM DIRINDEX 1\2,1\3,1\4,1\5,1\6,1\7,1\8
REM DIRNAME folder01,folder02,folder03,folder04,folder05,folder06,folder07,folder08
TITLE ""
FILE "005 でる文65.mp3" MP3
  TRACK 01 AUDIO
    TITLE "0:"
    INDEX 01 00:00:00
  TRACK 02 AUDIO
    TITLE "8:cjc150_3093"
    INDEX 01 00:00:03
  TRACK 03 AUDIO
    TITLE "0:"
    INDEX 01 00:01:62
  TRACK 04 AUDIO
    TITLE "2:cjc150_3094"
    INDEX 01 00:02:47
  TRACK 05 AUDIO
    TITLE "0:"
    INDEX 01 00:08:56
  TRACK 06 AUDIO
    TITLE "8:cjc150_3095"
    INDEX 01 00:10:14
  TRACK 07 AUDIO
    TITLE "0:"
    INDEX 01 00:12:65
  TRACK 08 AUDIO
    TITLE "3:cjc150_3096"
    INDEX 01 00:13:51
  TRACK 09 AUDIO
    TITLE "3:cjc150_3097"
    INDEX 01 00:15:58
  TRACK 10 AUDIO
    TITLE "3:cjc150_3098"
    INDEX 01 00:17:53
  TRACK 11 AUDIO
    TITLE "3:cjc150_3099"
    INDEX 01 00:19:26
  TRACK 12 AUDIO
    TITLE "3:cjc150_3100"
    INDEX 01 00:20:63
  TRACK 13 AUDIO
    TITLE "3:cjc150_3101"
    INDEX 01 00:22:38
  TRACK 14 AUDIO
    TITLE "3:cjc150_3102"
    INDEX 01 00:24:00
  TRACK 15 AUDIO
    TITLE "3:cjc150_3103"
    INDEX 01 00:26:20
  TRACK 16 AUDIO
    TITLE "8:cjc150_3104"
    INDEX 01 00:28:41
  TRACK 17 AUDIO
    TITLE "0:"
    INDEX 01 00:31:18
  TRACK 18 AUDIO
    TITLE "4:cjc150_3105"
    INDEX 01 00:32:03
  TRACK 19 AUDIO
    TITLE "4:cjc150_3106"
    INDEX 01 00:34:02
  TRACK 20 AUDIO
    TITLE "4:cjc150_3107"
    INDEX 01 00:36:35
  TRACK 21 AUDIO
    TITLE "4:cjc150_3108"
    INDEX 01 00:39:07
  TRACK 22 AUDIO
    TITLE "4:cjc150_3109"
    INDEX 01 00:42:21
  TRACK 23 AUDIO
    TITLE "4:cjc150_3110"
    INDEX 01 00:44:40
  TRACK 24 AUDIO
    TITLE "8:cjc150_3111"
    INDEX 01 00:47:27
  TRACK 25 AUDIO
    TITLE "0:"
    INDEX 01 00:50:19
  TRACK 26 AUDIO
    TITLE "5:cjc150_3112"
    INDEX 01 00:51:09
  TRACK 27 AUDIO
    TITLE "5:cjc150_3113"
    INDEX 01 00:53:08
  TRACK 28 AUDIO
    TITLE "5:cjc150_3114"
    INDEX 01 00:56:02
  TRACK 29 AUDIO
    TITLE "5:cjc150_3115"
    INDEX 01 00:58:09
  TRACK 30 AUDIO
    TITLE "5:cjc150_3116"
    INDEX 01 01:00:13
  TRACK 31 AUDIO
    TITLE "5:cjc150_3117"
    INDEX 01 01:02:06
  TRACK 32 AUDIO
    TITLE "5:cjc150_3118"
    INDEX 01 01:04:45
  TRACK 33 AUDIO
    TITLE "5:cjc150_3119"
    INDEX 01 01:06:20
  TRACK 34 AUDIO
    TITLE "5:cjc150_3120"
    INDEX 01 01:07:64
  TRACK 35 AUDIO
    TITLE "5:cjc150_3121"
    INDEX 01 01:09:18
  TRACK 36 AUDIO
    TITLE "5:cjc150_3122"
    INDEX 01 01:10:61
  TRACK 37 AUDIO
    TITLE "5:cjc150_3123"
    INDEX 01 01:12:36
  TRACK 38 AUDIO
    TITLE "5:cjc150_3124"
    INDEX 01 01:14:08
  TRACK 39 AUDIO
    TITLE "5:cjc150_3125"
    INDEX 01 01:15:27
  TRACK 40 AUDIO
    TITLE "5:cjc150_3126"
    INDEX 01 01:17:33
  TRACK 41 AUDIO
    TITLE "5:cjc150_3127"
    INDEX 01 01:19:52
  TRACK 42 AUDIO
    TITLE "8:cjc150_3128"
    INDEX 01 01:21:70
  TRACK 43 AUDIO
    TITLE "0:"
    INDEX 01 01:24:49
  TRACK 44 AUDIO
    TITLE "6:cjc150_3129"
    INDEX 01 01:25:35
  TRACK 45 AUDIO
    TITLE "6:cjc150_3130"
    INDEX 01 01:27:26
  TRACK 46 AUDIO
    TITLE "6:cjc150_3131"
    INDEX 01 01:30:07
  TRACK 47 AUDIO
    TITLE "6:cjc150_3132"
    INDEX 01 01:32:08
  TRACK 48 AUDIO
    TITLE "6:cjc150_3133"
    INDEX 01 01:34:01
  TRACK 49 AUDIO
    TITLE "6:cjc150_3134"
    INDEX 01 01:36:47
  TRACK 50 AUDIO
    TITLE "6:cjc150_3135"
    INDEX 01 01:40:09
  TRACK 51 AUDIO
    TITLE "6:cjc150_3136"
    INDEX 01 01:42:57
  TRACK 52 AUDIO
    TITLE "6:cjc150_3137"
    INDEX 01 01:45:30
  TRACK 53 AUDIO
    TITLE "6:cjc150_3138"
    INDEX 01 01:46:49
  TRACK 54 AUDIO
    TITLE "6:cjc150_3139"
    INDEX 01 01:49:53
  TRACK 55 AUDIO
    TITLE "6:cjc150_3140"
    INDEX 01 01:52:00
  TRACK 56 AUDIO
    TITLE "8:cjc150_3141"
    INDEX 01 01:53:51
  TRACK 57 AUDIO
    TITLE "0:"
    INDEX 01 01:55:28
  TRACK 58 AUDIO
    TITLE "7:cjc150_3142"
    INDEX 01 01:56:12
  TRACK 59 AUDIO
    TITLE "7:cjc150_3143"
    INDEX 01 02:02:18
  TRACK 60 AUDIO
    TITLE "0:"
    INDEX 01 02:08:58
